<?xml version="1.0" encoding="utf-8"?>
<!-- Generator: Adobe Illustrator 25.0.1, SVG Export Plug-In . SVG Version: 6.00 Build 0)  -->
<svg version="1.1" id="Layer_1" xmlns="http://www.w3.org/2000/svg" xmlns:xlink="http://www.w3.org/1999/xlink" x="0px" y="0px"
	 viewBox="0 0 561 510" style="enable-background:new 0 0 561 510;" xml:space="preserve">
<style type="text/css">
	.st0{fill:none;stroke:#000000;stroke-width:3;stroke-linecap:round;stroke-linejoin:round;stroke-miterlimit:10;}
	.st1{fill:none;stroke:#000000;stroke-width:2;stroke-linecap:round;stroke-linejoin:round;stroke-miterlimit:10;}
</style>
<g>
	<path class="st0" d="M6.18-0.34C142.88,104.46,388.41,62.6,544.5,1.5"/>
	<path class="st0" d="M2.41,0.06c37.95,59.9,95.42,100.15,154.01,132.46c97.9,54,203.4,90.32,311.31,107.17"/>
	<path class="st0" d="M0,5.09c105.34,156.74,252.64,270.83,417.38,325.05"/>
	<path class="st0" d="M3.82,1C45.9,73.24,88.09,145.69,122.36,223.01c34.28,77.32,60.63,160.04,69.12,245.99"/>
	<path class="st1" d="M476,27c0,0-99.92,111.19-51.27,204.91c0,0-63.83,9.42-54.02,81c0,0-153.89-1.01-183.59,121.66"/>
	<path class="st1" d="M426,39c0,0-106.82,140.49-40,184c0,0-65.97,25.37-31.2,83.2c0,0-104.88-52.12-179.45,69.39"/>
	<path class="st1" d="M393,46c0,0-121.06,78.71-80.36,155.5c0,0-41.53,36.7,9.21,89.37c0,0-80.03-45.81-159.04,39.26"/>
	<path class="st1" d="M336,56c0,0-90.4,70.18-71.64,127.68c0,0-43.52,27.06-14.65,66.59c0,0-75.83-35.55-107.28,21.19"/>
	<path class="st1" d="M260,64c0,0-63.76,55.99-46.93,97.39c0,0-37.34,10.3-21.58,48.24c0,0-57.37-42.07-72.9,4.98"/>
	<path class="st1" d="M191,62c0,0-79.4,17.56-62.73,54.22c0,0-20.84,20.74,14.16,52.84c0,0-37.29-19.98-46.26-1.45"/>
	<path class="st0" d="M-0.43,9.01C33.85,86.33,60.21,169.05,68.7,254.99"/>
	<path class="st0" d="M139.5,482.5"/>
	<path class="st0" d="M68.5,254.5"/>
	<path class="st0" d="M67.5,246.5c4,42-67,181-67,210"/>
	<path class="st1" d="M165.15,333.99C94,339,14,380-0.49,454.67"/>
	<path class="st1" d="M121.45,220.29c-13.72,4.61-25.84,12.96-35.92,23.25c-11.09,11.33-18.1,24.69-22.9,39.71
		c-2.68,8.37-4.78,16.92-7.17,25.38"/>
	<path class="st1" d="M145.96,274.79C128,274,111,278,95,285c-30,13-51,41-58.93,73.17"/>
	<path class="st1" d="M101.44,180.44c0,0-37.29-19.98-46.26-1.45"/>
	<path class="st1" d="M184.03,412.21c0.03,2.71,1.04,22.89,6.97,17.79c-1.47-1.73-3.31-3.35-5.64-3.66c0.83,2.33,3.31,3.5,5.64,3.66
		c-57-40-150-34-190,27"/>
</g>
</svg>
