<?xml version="1.0" encoding="utf-8"?>
<!-- Generator: Adobe Illustrator 25.0.1, SVG Export Plug-In . SVG Version: 6.00 Build 0)  -->
<svg version="1.1" id="Layer_1" xmlns="http://www.w3.org/2000/svg" xmlns:xlink="http://www.w3.org/1999/xlink" x="0px" y="0px"
	 viewBox="0 0 395 130" style="enable-background:new 0 0 395 130;" xml:space="preserve">
<style type="text/css">
	.st0{fill:#2F2A27;}
</style>
<g>
	<path class="st0" d="M114.05,85.81c-3.72-1.04-7.57,0.02-11.36,0.36c-3.8,0.35-8.01-0.25-10.64-3.78c-1.01-1.36-1.73-3.4-1.13-5.11
		c0.99-2.78,4.17-2.24,6.32-3.56c2.45-1.51,3.31-5.33,4.84-8.21c3.42-6.41,10.12-8.01,16.1-9.07c1.83-0.32,2.99-4.11,2.05-6.16
		c-0.65-1.42-1.92-2.11-2.96-3.07c-1.04-0.97-1.93-2.73-1.33-4.18c-1.06,1.23-1.07,3.64-0.02,4.89c0.99,1.18,2.7,1.4,3.22,3.01
		c0.37,1.14-0.12,2.51-0.89,3.25c-0.77,0.74-1.76,0.99-2.71,1.15c-2.52,0.43-5.08,0.43-7.6,0.9c-2.52,0.47-5.06,1.48-6.97,3.64
		c-3.09,3.49-4.27,9.66-8.03,11.81c-3.48,1.99-4.09,3.57-7.24,6.33c-0.69,0.61-7.42-0.81-8.21-1.17c-5.66-4.81,3.18-4.39,4.46-6.85
		c1.29-2.46,2.92-4.91,5.16-5.6c1.31-0.4,2.69-0.15,4.02-0.45c1.68-0.38,3.23-1.7,4.16-3.54c1.1-2.18,1.33-4.92,2.35-7.16
		c1.22-2.68,3.59-4.44,6-4.44c-3.07-1.56-7.06,0.57-8.33,4.49c-0.41,1.24-0.57,2.61-1.05,3.81c-0.85,2.15-2.62,3.52-4.46,3.96
		c-1.84,0.44-3.75,0.04-5.55-0.65c2.19-0.67,3.66-3.29,4.59-5.92c0.93-2.63,1.54-5.51,2.95-7.75c1.91-3.04,5.03-4.48,8.06-4.73
		c1.41-0.12,2.84-0.01,4.24-0.25c1.4-0.24,2.83-0.89,3.77-2.25c1.25-1.79,1.41-4.39,1.51-6.78c-0.96,1.99-1.81,3.95-2.77,5.93
		c-3.31,0.58-6.63,1.17-9.8,2.53c-3.17,1.35-6.2,3.54-8.33,6.83c-2.06,3.18-3.28,7.35-5.94,9.67c-1.16,1.02-2.65,1.76-3.14,3.45
		c-0.39,1.33-0.02,2.84-0.2,4.25c-0.28,2.12-1.9,3.69-3.56,3.85c-1.72,0.17-3.79-0.79-4.97,0.83c-0.65,0.89-0.72,2.27-0.51,3.46
		c0.21,1.19,0.65,2.3,0.9,3.48c0.69,3.25-0.21,6.89-2.06,9.28c-1.84,2.39-4.52,3.58-7.14,3.53c0.41-2.47-1.92-4.27-2.4-6.73
		c-0.26-1.3,0.04-2.69,0.49-3.9c1.62-4.35,5.17-7.45,5.9-12.17c0.38-2.47-0.09-5.03,0.09-7.54c0.23-3.23,1.6-6.29,3.66-8.18
		c2.23-2.05,5.04-2.64,7.63-3.8c4.52-2.01,8.53-5.88,11.29-10.9c-3.32,2.88-6.57,5.73-10.16,8.01c-1.81,1.16-3.84,2.17-5.82,1.64
		c0.21-3.05,0.67-6.61,2.8-8.01c0.9-0.59,1.94-0.66,2.94-0.91c2.48-0.64,7.57-4.75,9.71-6.56c-1.02-0.72-5.82,0.16-6.61,0.65
		c-2.73,1.7-5.64,2.89-8.31,4.72c-1.09,0.75-2.21,1.71-2.64,3.2c-0.46,1.61,0,3.42-0.24,5.1c-0.36,2.53-2.17,4.23-3.83,5.67
		c-0.68-0.49-1.78-1.52-1.68-2.51c0.09-0.99,0.43-1.92,0.6-2.89c0.47-2.66-0.44-5.63-2.19-7.18c-0.91-0.81-2.02-1.25-2.82-2.24
		c-1.59-1.98-1.37-5.27-1.03-8.08c0.1-0.83,0.23-1.72,0.71-2.28c0.49-0.56,1.3-0.59,1.82-0.06c0.06,0.06,0.12,0.13,0.17,0.21
		c0.59,0.87,1.45,1.54,2.5,1.59c2.35,0.11,4.97-0.81,7.38-0.81c2.48,0,4.23-1.1,6.54-2.27c0.79-5.77,5.14-8.82,9.65-9.72
		c-2.88-1.13-6.8,0.83-8.96,3.64c-0.81,1.05-0.72,3.59-1.66,4.43c-2.3,2.07-7.87,2.95-12.31,1.98c-2.1-0.46-2.22-3.37-0.16-3.96
		c1.73-0.49,3.54-0.86,4.31-1.33c1.21-0.74,2.65-0.5,3.93-1c2.91-1.14,4.28-5.66,7.08-7.2c0-1.81,0.05-3.6,0.06-5.41
		c-1.26,4.42-3.75,8.23-6.91,10.6c-1.68,1.26-3.65,2.12-5.56,1.68c-0.86-0.2-1.68-0.66-2.55-0.73c-2.51-0.23-4.74,2.69-7.24,2.34
		c-0.34,2.35,0.15,5.47-1.04,7.31c-1.54,2.37-1.75,6.02-0.51,8.66c1.17,2.49,3.42,4.02,4.3,6.71c0.53,1.63,0.48,3.48,0.35,5.24
		c-0.15,1.97-0.39,3.98-1.13,5.73c-0.74,1.74-2.05,3.19-3.58,3.38c-1.54,0.19-3.2-1.2-3.37-3.17c-0.07-0.84,0.11-1.71-0.03-2.53
		c-0.3-1.68-1.75-2.46-2.85-3.45c-1.52-1.37-4.97-8.35-5.95-9.37c0.29,1.24,0.49,2.5,0.53,3.8c-2.35-1.88-4.77-3.8-7.49-4.42
		c-1.27-0.29-2.62-0.31-3.74-1.13c-0.84-0.61-1.45-1.61-2.19-2.41c-2.47-2.67-6.62-2.82-9.11-0.18c1.62-0.26,3.25-0.53,4.87-0.33
		c1.62,0.2,3.25,0.9,4.44,2.34c0.73,0.89,1.28,2.04,2.11,2.76c1.38,1.18,3.24,1.01,4.88,0.72c1.87,1.99,4.01,3.51,5.92,5.44
		c1.91,1.92,3.64,4.39,4.19,7.43c0.31,1.67,0.28,3.55,1.11,4.9c0.85,1.37,2.44,1.9,2.98,3.51c0.35,1.04,0.15,2.23-0.05,3.32
		c-0.69,3.72-1.38,7.45-2.07,11.17c-0.08,0.44-0.24,0.97-0.59,1.03c-0.19,0.03-0.38-0.1-0.54-0.23c-1.7-1.42-2.82-3.94-2.9-6.55
		c-0.05-1.65,0.28-3.34-0.05-4.94c-0.4-1.93-1.67-3.31-2.65-4.86c-0.98-1.55-1.71-3.79-0.89-5.49c-1.81-1.33-3.51-2.45-5.32-3.79
		c-0.62-2.48-1.4-5.21-3.19-6.42c-1.16-0.78-2.54-0.78-3.74-1.45c-1.19-0.67-2.1-1.93-3.09-3.01c-0.99-1.07-2.22-2.02-3.51-1.81
		c-0.57,0.09-1.1,0.4-1.67,0.5c-0.67,0.11-1.35-0.08-2.02-0.28c-2.78-0.82-5.17-1.68-7.95-2.49c0.62,1.65,2.16,2.3,3.56,2.63
		c1.4,0.33,2.93,0.57,3.94,1.86c0.46,0.58,0.83,1.38,1.45,1.57c1.06,0.31,1.89-1.35,2.97-1.51c0.75-0.11,1.43,0.53,2.04,1.1
		c2.49,2.32,5.32,4.03,8.29,5.04c-0.07,1.2-0.25,2.61-0.32,3.81c-2.27,1.02-4.39,1.14-6.7,0.23c-2.29,1.46-5.06,1.09-7.4,2.42
		c-1.76,1.01-2.89,3.11-4.18,4.94c3.3-2.5,6.78-5.07,10.6-5.19c1.37-0.04,2.75,0.24,4.12,0.02c1.08-0.17,2.15-0.65,3.24-0.58
		c1.14,0.08,2.2,0.75,3.22,1.41c1.6,1.04,3.38,2.36,3.73,4.62c0.21,1.39-0.19,2.83-0.06,4.24c0.26,2.89,2.55,4.74,3.41,7.43
		c1.22,3.81-0.7,8.22,0.02,12.24c-0.77-1.1-2.02-1.31-3.13-1.65c-1.12-0.35-2.36-1.12-2.57-2.57c-0.18-1.26,0.5-2.44,0.7-3.7
		c0.53-3.33-2.33-6.53-1.56-9.77c-0.73-1.72-2.15-2.78-3.59-3.44c-1.44-0.66-2.96-1.03-4.34-1.84c-1.39-0.81-2.69-2.2-3.06-4.11
		c1.13,5.07,5.01,9.24,9.12,9.39c0.11,2.1,0.58,4.17,1.36,6.03c0.29,0.69,0.63,1.4,0.62,2.19c-0.02,1.02-0.64,1.83-1.09,2.66
		c-0.75,1.38-1.12,3.1-1.03,4.78c-1.83-1.03-2.31-4.42-2.81-6.91c-0.23-1.13-1.15-1.81-2.05-2c-0.9-0.18-1.81,0-2.72-0.05
		c-2.75-0.16-5.45-2.43-6.22-5.83c-2.5-1.27-5-2.54-7.61-3.35c-2.61-0.8-4.89-1.19-7.52-0.54c5.16,1.03,10.76,2.35,14.24,7.35
		c0.95,1.36,1.72,2.97,2.89,3.99c1.71,1.49,3.94,1.46,5.99,1.09c0.8,2.2,1.45,4.56,2.25,6.76c-0.9-0.75-2.13-0.56-3.08,0.07
		c-0.96,0.64-1.72,1.66-2.51,2.59c-0.79,0.94-1.68,1.83-2.73,2.14c-1.04,0.3-2.13-0.03-3.09-0.64c-0.95-0.61-1.98-0.89-2.8-1.75
		c1.55,3.27,5.1,4.68,7.82,3.12c1.52-0.88,2.74-2.52,4.3-3.26c2.46-1.16,5.17,0.14,7.6,1.42c2.12,1.12,4.37,2.4,5.54,4.92
		c0.81,1.76,0.98,3.88,1.6,5.77c1.79,5.47,0.87,28.32-3.14,35.05c0.2-0.05,9.74-0.91,9.94-0.95h12.79
		c-1.43-3.29,0.12-6.88,0.16-10.65c0.04-3.44-1.09-6.7-1.63-10.06c-0.54-3.37-0.31-7.38,1.8-9.5c1.59-1.6,3.79-1.67,5.6-2.81
		c2.01-1.28,3.4-3.82,4.15-6.54c0.75-2.72,0.95-5.63,1.14-8.5c5.31-0.22,11.79,4.71,13.88,10.99c0.7,2.11,1.15,4.55,2.57,5.95
		c1.11,1.09,2.59,1.31,3.98,1.28c1.4-0.04,2.8-0.28,4.18,0.04s2.76,1.36,3.2,3.06c0.44,1.7-0.54,3.93-1.94,3.83
		c1.09,0.22,2.23,0.21,2.9-0.91c0.67-1.12,0.82-2.72,0.38-4.01c-0.66-1.93-2.37-2.87-3.98-3.27s-3.31-0.48-4.76-1.47
		c-1.45-0.99-2.53-3.34-1.78-5.22c3.39,1.12,6.67-0.36,10.13-1c3.46-0.64,6.99-1.38,10.44-0.64c3.45,0.73,6.89,3.25,8.25,7.39
		C121.47,91,118.03,86.93,114.05,85.81z"/>
	<path class="st0" d="M27.89,131.6h353.14c-5.44-0.42-11.38-1.26-16.36-3.49c-1.44-0.65-2.82-1.44-4.12-2.33
		c-1.05-0.72-2.05-1.52-2.99-2.37c-3.31-3.01-8.05-3.85-12.1-1.94c-0.15,0.07-0.3,0.14-0.45,0.22c-2.82,1.39-5.47,3.12-8.39,4.27
		c-4.49,1.75-9.54,2.02-14.19,0.76c-1.4-0.38-2.77-1.17-4.03-2.15c-2.38-1.85-5.55-2.13-8.33-0.96c-3.73,1.57-8.04,1.8-11.87,0.46
		c-3.54,4.23-9.54,6.24-14.92,5c-7.24-1.67-14.74-6.86-22.08-5.72c-2.95,0.45-5.73,1.66-8.67,2.19c-2.36,0.43-4.78,0.41-7.18,0.38
		c-7.08-0.06-14.17-0.12-21.25-0.19c-11.03,2.44-23.95,1.29-34.38-3.06c-1.82-0.76-3.68-1.63-5.65-1.58
		c-1.61,0.04-3.13,0.7-4.63,1.31c-8.21,3.33-16.89,5.28-25.61,6.95c-3.71,0.71-7.52,0.36-11.12-0.81
		c-4.22-1.36-8.88-1.96-13.13-2.25c-3.23-0.22-6.58-0.07-9.6-1.24c-2.41-0.94-4.45-2.67-6.88-3.57c-5.72-2.14-11.98,0.68-17.43,3.43
		c-8.19,4.14-19.28,0.23-27.83-1.71c-1.28-0.29-2.61-0.31-3.87,0.06c-3.43,0.99-6.05,3.91-9.58,3.31c-1.04-0.18-1.87-0.4-2.69-0.7
		c-3.77-1.35-9.49-0.59-12.81,1.66C35.77,129.63,31.66,131.6,27.89,131.6z"/>
	<path class="st0" d="M91.79,113.15c-1.01-1.83-2.46-3.43-4.19-4.6c-1.04-0.71-2.26-1.25-3.49-1.47c-0.72,0.13-1.41,0.4-1.97,0.87
		c-1.29,1.1-1.58,3.51-1.69,5.2c-0.22,3.31,0.27,6.68,1.08,9.9c-1.58-3.66-2.16-7.75-1.64-11.71c0.21-1.6,0.69-3.33,2.01-4.26
		c-0.28,0.06-0.56,0.15-0.84,0.26c-1.62,0.68-2.76,2.23-3.29,3.9c-0.53,1.68-0.52,3.47-0.38,5.22c0.3,3.81,1.2,7.57,2.66,11.1
		c0.59,1.43,2.95,1.22,4.5,1.13c4.25-0.23,8.58-0.45,12.84-0.68C94.05,123.87,94.36,117.82,91.79,113.15z"/>
	<path class="st0" d="M301.76,118.03c-0.75-1.37-1.83-2.56-3.12-3.43c-0.78-0.53-1.68-0.93-2.61-1.09c-0.54,0.1-1.05,0.3-1.47,0.65
		c-0.96,0.82-1.18,2.62-1.26,3.88c-0.16,2.47,0.2,4.98,0.8,7.38c-1.18-2.73-1.61-5.78-1.23-8.73c0.16-1.2,0.51-2.48,1.5-3.17
		c-0.21,0.05-0.42,0.11-0.63,0.19c-1.21,0.5-2.06,1.66-2.45,2.91s-0.39,2.59-0.28,3.89c0.23,2.84,0.9,5.65,1.98,8.28
		c0.44,1.07,2.2,0.91,3.35,0.85c3.17-0.17,6.4-0.34,9.57-0.51C303.44,126.02,303.67,121.51,301.76,118.03z"/>
	<path class="st0" d="M162.32,114.67c-0.59-1.9-1.65-3.55-3.07-4.78c-0.86-0.74-1.92-1.3-3.07-1.53c-0.73,0.13-1.45,0.4-2.09,0.89
		c-1.48,1.13-2.28,3.62-2.74,5.37c-0.91,3.42-1.16,6.9-1.05,10.23c-0.76-3.79-0.44-8.02,0.89-12.1c0.54-1.66,1.37-3.44,2.85-4.39
		c-0.29,0.06-0.58,0.15-0.87,0.27c-1.71,0.69-3.14,2.29-4.01,4.02c-0.87,1.73-1.24,3.58-1.47,5.39c-0.51,3.94-0.44,7.83,0.22,11.48
		c0.27,1.48,2.59,1.27,4.11,1.19c4.16-0.22,8.4-0.42,12.56-0.64C162.23,125.75,163.81,119.51,162.32,114.67z"/>
	<path class="st0" d="M197.37,112.13c0.81-1.81,2.07-3.32,3.64-4.36c0.94-0.63,2.06-1.06,3.23-1.14c0.7,0.22,1.39,0.58,1.96,1.14
		c1.33,1.3,1.81,3.88,2.06,5.66c0.49,3.51,0.3,6.99-0.21,10.28c1.22-3.67,1.43-7.9,0.6-12.12c-0.33-1.71-0.94-3.58-2.29-4.7
		c0.28,0.1,0.55,0.22,0.83,0.37c1.61,0.9,2.83,2.66,3.48,4.48c0.65,1.82,0.79,3.71,0.8,5.53c0.03,3.97-0.53,7.82-1.63,11.37
		c-0.45,1.44-2.73,0.94-4.22,0.68c-4.1-0.73-8.28-1.45-12.38-2.18C196.09,123.14,195.29,116.75,197.37,112.13z"/>
	<g>
		<path class="st0" d="M115.27,127.66c1.07-6.27,2.33-12.51,3.78-18.71c-2.84-0.64-5.76-1.1-8.66-1.35c0.4-1.19,0.42-2.64,0.5-3.9
			c2.77,0.87,5.64,1.55,8.47,2.21c0.83-2.85,1.88-7.18,1.98-10.15c1.4,0.35,2.87,0.68,4.27,1.03c-1.01,2.77-2.04,7.03-2.15,9.98
			c2.46,0.27,6.36,0.7,8.83,0.68c-0.24,1.09-0.48,2.25-0.71,3.34c-2.3-0.34-6.05-1.03-8.29-1.65c-1.51,6.8-2.85,13.69-4.36,20.48
			C117.49,129.1,116.47,128.6,115.27,127.66z"/>
		<path class="st0" d="M121.08,99.49c-4.39,0-7.94,3.56-7.94,7.94c0,4.39,3.56,7.94,7.94,7.94c4.39,0,7.94-3.56,7.94-7.94
			C129.02,103.05,125.46,99.49,121.08,99.49z M121.08,113.49c-3.34,0-6.06-2.71-6.06-6.06c0-3.34,2.71-6.06,6.06-6.06
			c3.34,0,6.06,2.71,6.06,6.06C127.13,110.78,124.42,113.49,121.08,113.49z"/>
	</g>
	<g>
		<path class="st0" d="M258.03,130.3c-2.13-4.21-4.14-8.47-6.01-12.8c-1.97,0.87-3.91,1.89-5.75,3.02
			c-0.29-0.89-0.92-1.76-1.42-2.54c2.03-0.71,4.04-1.57,6.02-2.43c-0.77-2.06-2.05-5.1-3.3-6.91c0.99-0.41,2.01-0.86,2.99-1.27
			c0.62,2.09,1.89,5.09,3.13,6.89c1.58-0.92,4.09-2.39,5.56-3.49c0.34,0.76,0.71,1.55,1.05,2.3c-1.52,0.81-4.05,2.06-5.66,2.68
			c2.1,4.71,4.34,9.4,6.44,14.11C259.99,130.18,259.16,130.33,258.03,130.3z"/>
		<path class="st0" d="M249.05,110.98c-2.61,1.94-3.16,5.62-1.22,8.23c1.94,2.61,5.62,3.16,8.23,1.22c2.61-1.94,3.16-5.62,1.22-8.23
			C255.34,109.59,251.66,109.04,249.05,110.98z M255.23,119.31c-1.99,1.48-4.8,1.06-6.28-0.93c-1.48-1.99-1.06-4.8,0.93-6.28
			c1.99-1.48,4.8-1.06,6.28,0.93C257.63,115.02,257.22,117.83,255.23,119.31z"/>
	</g>
	<path class="st0" d="M102.36,113.38c1.92,1.44,3.5,3.32,4.6,5.45c-2.36-1.76-4.82-3.57-7.69-4.23c2.39,0.79,4.5,2.41,5.88,4.52
		c-2.83-1.38-5.92-2.22-9.06-2.47c2.14,0.73,4.17,1.74,6.05,3.01c-1.63-0.07-3.25-0.14-4.88-0.2c1.71,0.49,3.41,0.98,5.12,1.47
		c-2-0.09-4.03,0.27-5.87,1.07c3.02-0.53,5.99,1.25,9.06,1.27c1.15,0.01,2.3-0.24,3.34-0.71c0.33-0.15,1.3-0.51,1.45-0.86
		c0.16-0.37-0.33-1-0.52-1.33c-1.09-1.92-2.56-3.63-4.3-5C104.55,114.58,103.49,113.92,102.36,113.38z"/>
	<path class="st0" d="M174.19,116.34c1.26,2.04,2.05,4.37,2.3,6.75c-1.56-2.5-3.19-5.08-5.62-6.74c1.94,1.61,3.31,3.89,3.83,6.35
		c-2.13-2.32-4.71-4.23-7.54-5.61c1.72,1.46,3.25,3.15,4.53,5c-1.49-0.66-2.98-1.31-4.47-1.97c1.41,1.08,2.82,2.15,4.23,3.23
		c-1.83-0.82-3.85-1.21-5.86-1.15c3.01,0.6,5.13,3.35,7.98,4.49c1.07,0.43,2.23,0.61,3.37,0.55c0.37-0.02,1.4,0,1.67-0.28
		c0.28-0.29,0.06-1.05,0-1.43c-0.31-2.19-1.06-4.31-2.18-6.22C175.79,118.26,175.04,117.25,174.19,116.34z"/>
	<path class="st0" d="M228.09,117.8c-1.26,2.04-2.05,4.37-2.3,6.75c1.56-2.5,3.19-5.08,5.62-6.74c-1.94,1.61-3.31,3.89-3.83,6.35
		c2.13-2.32,4.71-4.23,7.54-5.61c-1.72,1.46-3.25,3.15-4.53,5c1.49-0.66,2.98-1.31,4.47-1.97c-1.41,1.08-2.82,2.15-4.23,3.23
		c1.83-0.82,3.85-1.21,5.86-1.15c-3.01,0.6-5.13,3.35-7.98,4.49c-1.07,0.43-2.23,0.61-3.37,0.55c-0.37-0.02-1.4,0-1.67-0.28
		c-0.28-0.29-0.06-1.05,0-1.43c0.31-2.19,1.06-4.31,2.18-6.22C226.48,119.71,227.23,118.71,228.09,117.8z"/>
	<path class="st0" d="M221.67,69.07c-1.13-2.16-2.96-3.94-5.14-5.01c-1.66-0.81-3.52-1.23-5.05-2.26c-2.49-1.68-3.88-5.01-6.35-6.5
		c-1.57-0.95-2.86-2.33-3.39-4.09c-1.73-5.79,0.64-13.82-7.65-16.1c-1.08-0.3-2.2-0.42-3.33-0.45c-1.83-0.06-3.93-0.21-5.57,0.77
		c-1.2,0.72-2,1.97-2.54,3.27c-1.63,3.9-0.93,8.72,1.33,12.29c0.03,2.49,0.05,5.01-0.48,7.45c-0.53,2.44-1.67,4.82-3.6,6.39
		c-1.87,1.52-4.31,2.17-6.29,3.54c-2.32,1.6-3.23,5.17-2.06,7.74c1.24,2.73,3.44,5.02,6.14,6.32c-1.5-1.29-2.49-3.16-2.72-5.13
		c3.03,1.77,5.84,3.9,8.37,6.33c-1.34-1.82-2.13-4.05-2.24-6.31c0.43,2.21,2.53,3.62,4.43,4.84c1.9,1.21,3.95,2.76,4.17,5
		l-0.11-3.92l2.39,3.81c0.43-2.28,0.08-5-1.62-6.57c1.93,1.39,3.13,3.73,3.13,6.11c0.01,2.37-1.18,4.72-3.1,6.12
		c-2.69,1.97-6.37,1.94-9.61,1.16c-2.9-0.7-5.65-1.94-8.44-3c-2.79-1.06-5.71-1.97-8.69-1.96c-3.81,0.01-7.8,1.67-9.37,5.43
		c-0.45,1.07-0.61,2.25-0.44,3.4c0.52,3.67,3.56,5.02,6.44,5.95c2.02,0.65,4.14,1.22,5.77,2.58c1.63,1.36,2.58,3.81,1.53,5.65
		c2.28-0.94,2.29-3.1,1.41-5.41c-0.88-2.31-3.1-3.88-5.45-4.65c-1.42-0.47-2.92-0.69-4.27-1.34c-1.35-0.64-2.57-1.84-2.67-3.33
		c-0.09-1.3,0.73-2.55,1.83-3.26c1.1-0.71,2.43-0.96,3.73-1.04c4.75-0.28,9.37,1.55,13.63,3.67c4.26,2.12,8.42,4.6,13.03,5.77
		c4.62,1.17,9.92,0.83,13.56-2.24c2.69-2.27,4.1-5.66,5.42-8.92c1.24-3.06,2.48-6.13,3.72-9.19c-0.03,3.44-0.9,6.87-2.51,9.91
		c4.23-2.42,6.7-7.6,5.91-12.41l3.49,5.91c-0.59-1.49-0.72-3.16-0.36-4.72c0.79,1.85,1.58,3.71,2.36,5.56
		c-0.08-1.88-0.17-3.75-0.25-5.63c0.21,3.01,1.34,5.96,3.2,8.33C224.9,82.28,224.83,75.12,221.67,69.07z M193.48,42.93
		c-0.56,0.52-1.37,0.8-2.11,0.62c-0.33-0.08-0.65-0.26-0.78-0.57c-0.11-0.26-0.07-0.55-0.03-0.83c0.19-1.27,0.8-4.36,2.75-3.69
		C195.13,39.08,194.57,41.91,193.48,42.93z M198.02,53.48c-0.62,0.39-1.48,0.26-2.06-0.18c-0.59-0.44-0.93-1.14-1.08-1.86
		c-0.15-0.72-0.13-1.46-0.1-2.19c0.05-1.47,0.1-2.94,0.14-4.41c0.02-0.55,0.02-1.92,0.81-1.97c0.76-0.04,1.01,1.14,1.18,1.65
		c0.6,1.79,1.07,3.62,1.41,5.47C198.53,51.16,198.67,52.47,198.02,53.48z M198.97,41.73c-0.1,0.22-0.33,0.36-0.57,0.41
		c-0.54,0.13-1.13-0.07-1.54-0.45c-0.79-0.74-1.2-2.81,0.13-3.26c1.42-0.49,1.87,1.76,2,2.69
		C199.02,41.32,199.05,41.54,198.97,41.73z"/>
	<path class="st0" d="M294.78,107.62c-2.1-1.03-4.06-2.52-6.38-2.8c-2.99-0.36-5.77,1.36-8.55,2.54c-2.77,1.18-6.42,1.66-8.43-0.59
		c-1.83-2.05-1.23-5.38,0.34-7.63s3.9-3.87,5.72-5.92c1.83-2.05,3.17-4.96,2.18-7.52c-1.18-3.06-5.21-4.11-8.37-3.22
		c-5.55,1.56-8.97,7.46-9.51,13.19c-0.48,5.09,1,10.53,4.67,14.09c3.67,3.56,9.68,4.81,14.13,2.29c2.01-1.14,3.6-2.89,5.6-4.05
		c2.1-1.21,2.83-1.11,4.61,0.12c3.37,2.32,7.45,2.2,10.58-0.49C299.62,109.16,296.88,108.66,294.78,107.62z M277.33,89.01
		c0.15-0.32,0.44-0.62,0.79-0.7c0.36-0.09,0.63,0.3,0.72,0.61c0.08,0.29,0.05,0.59,0.01,0.88c-0.04,0.27-0.11,0.54-0.24,0.78
		c-0.14,0.24-0.35,0.44-0.62,0.51c-0.27,0.07-0.58-0.02-0.73-0.26c-0.11-0.16-0.12-0.37-0.12-0.56
		C277.12,89.84,277.15,89.4,277.33,89.01z M275.65,91.96c-0.07,0.32-0.2,0.62-0.36,0.9c-0.33,0.55-0.83,0.99-1.43,1.23
		c-0.22,0.09-0.47,0.15-0.71,0.13c-0.24-0.02-0.48-0.14-0.61-0.34c-0.21-0.32-0.09-0.76,0.1-1.09c0.43-0.75,1.19-1.27,1.99-1.61
		c0.28-0.12,0.84-0.32,1.06,0.02C275.8,91.39,275.69,91.75,275.65,91.96z M272.08,88.2c0.53-0.44,1.11-0.84,1.75-1.08
		c0.59-0.21,2.06-0.49,2.21,0.36c0.14,0.79-0.29,1.65-0.91,2.12c-0.77,0.58-1.83,0.69-2.77,0.46c-0.39-0.09-0.82-0.29-0.92-0.68
		C271.33,88.92,271.71,88.49,272.08,88.2z"/>
	<path class="st0" d="M355.18,83.72c-1.2-1.78-2.89-3.31-4.96-3.9c-2.06-0.59-4.51-0.08-5.88,1.57c-1.34,1.62-1.43,3.94-1.16,6.02
		c0.27,2.09,0.82,4.18,0.54,6.27c-0.46,3.34-3.32,6.21-6.67,6.68c-3.09,0.43-6.59-0.92-9.17,0.84c-1.43,0.97-2.16,2.68-2.63,4.35
		c-0.47,1.67-0.75,3.41-1.61,4.92c-1.49,2.62-4.05,2.18-6.24,3.65c-2.15,1.45-2.72,3.58-2.6,6.02c-0.12-2.33,2.31-3.96,4.55-4.6
		c2.24-0.64,4.77-0.88,6.44-2.52c1.47-1.44,1.91-3.65,3.2-5.27c1.8-2.27,4.95-2.99,7.85-2.99c2.9,0,5.81,0.56,8.69,0.2
		c4.62-0.58,8.85-3.68,10.77-7.92C358.23,92.81,357.79,87.58,355.18,83.72z M349.22,88.04c-0.31,0.26-0.72,0.49-1.09,0.34
		c-0.44-0.17-0.56-0.73-0.58-1.2c-0.04-0.69-0.03-1.39,0.16-2.05c0.17-0.6,0.81-1.95,1.6-1.58c0.72,0.35,1.17,1.2,1.18,1.98
		C350.49,86.5,349.96,87.41,349.22,88.04z M353.8,93.1c-0.1,0.5-0.23,0.99-0.45,1.39c-0.22,0.4-0.52,0.69-0.83,0.7
		c-0.49,0.01-0.82-0.69-0.99-1.41c-0.39-1.62-0.28-3.55,0.03-5.35c0.11-0.63,0.37-1.85,0.88-1.84c0.29,0.01,0.56,0.6,0.72,0.92
		c0.25,0.49,0.45,1.05,0.59,1.67C354.02,90.37,354.05,91.77,353.8,93.1z M354.38,84.86c-0.08,0.27-0.37,0.45-0.73,0.37
		c-0.25-0.05-0.5-0.22-0.73-0.38c-0.51-0.36-1.01-0.76-1.36-1.24c-0.28-0.39-0.47-0.88-0.36-1.24c0.11-0.37,0.72-0.26,1.13-0.06
		c0.38,0.18,0.72,0.46,1.04,0.75c0.29,0.27,0.57,0.55,0.77,0.87S354.45,84.58,354.38,84.86z"/>
	<g>
		<path class="st0" d="M150.32,64.81c-1.26,1.24-2.58,2.52-4.05,3.03c-1.47,0.5-4.45,0.96-7.06-0.26c-2.62-1.22-4.18-3.79-4.74-5.24
			c-0.56-1.45-0.43-3.29-0.29-5.05c-3.15-0.38-6.64,0.13-9.82,2.08c1.28-0.31,2.51,0.28,3.07,1.48s0.42,2.95-0.36,4.34
			c0.55-0.94,1.71-1.21,2.49-0.97c0.78,0.24,1.3,1.05,1.5,2c0.2,0.94,0.11,2.01-0.07,3.06c0.78-1.12,2.12-1.48,3.05-1.04
			c0.93,0.44,1.49,1.53,1.71,2.74c0.22,1.21,0.15,2.53,0.08,3.84c0.95-0.9,1.92-1.8,2.99-2.41c1.07-0.61,2.26-0.88,3.19-0.45
			c0.94,0.43,1.52,1.69,1.16,3.01c0.69-0.81,1.45-1.57,2.3-2.02s1.8-0.58,2.49-0.14c0.69,0.45,1.23,1.5,0.86,2.53
			c0.57-1.49,1.82-2.72,3.1-3.07c1.28-0.34,2.53,0.22,3.11,1.4C154.49,69.98,152.64,66.97,150.32,64.81z"/>
		<path class="st0" d="M141.34,67.38c0.17-1.02,0.35-2.03,0.52-3.05c-0.4,0.59-0.65,1.23-0.88,1.91c-0.23-0.32-0.6-0.53-1-0.69
			c-0.38-0.19-0.78-0.35-1.17-0.32c0.37-0.61,0.7-1.22,0.9-1.9c-0.67,0.79-1.33,1.57-2,2.36c-0.34,0.4-0.7,0.83-0.85,1.34
			c0.47,0.61,1.1,1.13,1.71,1.56c0.71,0.19,1.52,0.33,2.29,0.31C141.16,68.44,141.25,67.89,141.34,67.38z"/>
	</g>
	<g>
		<path class="st0" d="M253.95,63.5c0.18,1.45,0.35,2.97-0.07,4.19c-0.42,1.22-1.63,3.4-3.75,4.5c-2.13,1.1-4.6,0.82-5.84,0.45
			c-1.24-0.37-2.37-1.39-3.46-2.37c-1.85,1.87-3.29,4.42-3.62,7.49c0.44-1,1.46-1.51,2.53-1.26c1.07,0.24,2.14,1.22,2.67,2.44
			c-0.34-0.84,0.07-1.73,0.63-2.12c0.56-0.39,1.35-0.32,2.07,0.03c0.72,0.35,1.38,0.95,1.97,1.6c-0.34-1.08,0.1-2.14,0.86-2.53
			c0.76-0.39,1.76-0.2,2.66,0.27c0.9,0.47,1.73,1.19,2.55,1.9c-0.1-1.08-0.21-2.17-0.07-3.18c0.14-1.01,0.57-1.93,1.32-2.32
			c0.76-0.4,1.88-0.14,2.56,0.76c-0.18-0.86-0.29-1.75-0.16-2.53c0.13-0.79,0.53-1.48,1.18-1.7c0.64-0.23,1.61-0.04,2.1,0.72
			c-0.69-1.13-0.86-2.57-0.44-3.59c0.42-1.01,1.43-1.55,2.5-1.33C259.45,63.39,256.54,63.08,253.95,63.5z"/>
		<path class="st0" d="M251.08,70.69c-0.58-0.63-1.16-1.26-1.73-1.89c0.18,0.56,0.48,1.05,0.81,1.54c-0.33-0.01-0.65,0.13-0.96,0.3
			c-0.32,0.15-0.62,0.33-0.8,0.61c-0.21-0.55-0.44-1.08-0.79-1.55c0.18,0.84,0.35,1.67,0.53,2.51c0.09,0.43,0.19,0.88,0.45,1.24
			c0.64,0,1.3-0.15,1.89-0.33c0.49-0.37,0.99-0.83,1.36-1.35C251.68,71.35,251.37,71.01,251.08,70.69z"/>
	</g>
	<g>
		<path class="st0" d="M327.82,84.37c-1.23,0.79-2.53,1.6-3.81,1.75c-1.28,0.15-3.77,0-5.68-1.45c-1.91-1.44-2.73-3.8-2.93-5.07
			c-0.2-1.27,0.23-2.74,0.65-4.14c-2.48-0.86-5.41-1.06-8.32-0.03c1.09-0.03,1.99,0.67,2.23,1.74c0.24,1.07-0.18,2.46-1.05,3.46
			c0.61-0.67,1.59-0.68,2.19-0.35c0.59,0.33,0.87,1.08,0.87,1.88c0,0.8-0.26,1.65-0.59,2.47c0.83-0.77,1.98-0.83,2.65-0.31
			c0.68,0.52,0.94,1.5,0.91,2.52c-0.03,1.02-0.32,2.08-0.61,3.12c0.93-0.56,1.87-1.13,2.84-1.43c0.97-0.3,1.98-0.32,2.67,0.19
			c0.68,0.51,0.94,1.64,0.42,2.64c0.7-0.54,1.45-1.01,2.22-1.24c0.77-0.22,1.56-0.16,2.05,0.33c0.48,0.48,0.73,1.43,0.26,2.2
			c0.72-1.11,1.95-1.89,3.04-1.94c1.1-0.05,2.01,0.62,2.28,1.68C330.3,89.29,329.32,86.53,327.82,84.37z"/>
		<path class="st0" d="M320.1,84.89c0.32-0.79,0.64-1.59,0.95-2.38c-0.42,0.4-0.74,0.89-1.04,1.39c-0.13-0.3-0.4-0.53-0.68-0.74
			c-0.27-0.22-0.57-0.42-0.89-0.46c0.41-0.43,0.78-0.86,1.06-1.38c-0.68,0.52-1.35,1.04-2.03,1.56c-0.35,0.27-0.71,0.55-0.93,0.94
			c0.28,0.57,0.7,1.11,1.11,1.56c0.54,0.28,1.18,0.54,1.8,0.65C319.76,85.72,319.94,85.29,320.1,84.89z"/>
	</g>
</g>
</svg>
