<?xml version="1.0" encoding="utf-8"?>
<!-- Generator: Adobe Illustrator 25.3.1, SVG Export Plug-In . SVG Version: 6.00 Build 0)  -->
<svg version="1.1" id="Layer_1" xmlns="http://www.w3.org/2000/svg" xmlns:xlink="http://www.w3.org/1999/xlink" x="0px" y="0px"
	 viewBox="0 0 455.6 160.9" style="enable-background:new 0 0 455.6 160.9;" xml:space="preserve">
<style type="text/css">
	.st0{fill:#2F2B27;}
	.st1{fill:#FFFFFF;}
	.st2{fill:#F7921E;}
	.st3{fill:#60BB46;}
	.st4{fill:#72BF44;}
	.st5{fill:#76C043;}
	.st6{fill:#81C341;}
	.st7{display:none;}
	.st8{display:inline;fill:none;}
	.st9{display:inline;}
	.st10{font-family:'Archetype-Regular';}
	.st11{font-size:48px;}
</style>
<g id="Layer_1_1_">
	<g>
		<g>
			<g>
				<path class="st0" d="M214.1,87.3c1.2-1,2.4-2.1,3.3-3.4c0.9-1.3,1.3-2.8,0.9-4.2c-0.4-1.4-1.6-2.5-2.6-3.7s-1.8-2.7-1.4-4.1
					c1.9-1.2,3.2-3,3.9-4.9c1,0.9,2.2,1.7,3.7,2.1c-2.1,0.6-3.3,2.7-3,4.5c0.3,1.9,1.7,3.5,3.4,4.7c0.6,0.4,1.2,0.8,1.4,1.5
					c0.1,0.4-0.1,0.9-0.2,1.3c-0.7,2.6,0.8,5.4,3.4,6.7c-2.5,1-5.4,1.3-8,0.6C217.3,87.9,215.7,87.3,214.1,87.3z"/>
				<g>
					<path class="st0" d="M256.5,117.1c-2.3,6.2-4.7,10.5-10.6,14.6c-2.7,1.9-10.3,3.1-14.6,0.1c-1.5,1-7.9,2.2-11.3-0.7
						c-3.4,2.9-9.8,1.7-11.3,0.7c-4.4,3-11.9,1.8-14.6-0.1c-5.9-4.1-8.3-8.4-10.6-14.6s-2-13,0.7-19c1.6-3.5,3.2-6.4,7.1-8.2
						c3.9-1.8,7.4-2.2,10.4,0.6c0.9-1.9,5.7-3.8,9.1-4.1c2.4-0.2,7.4,0.4,9.1,1.8c1.7-1.4,6.8-2,9.1-1.8c3.4,0.3,8.2,2.2,9.1,4.1
						c3.1-2.8,6.5-2.4,10.4-0.6c3.9,1.8,5.5,4.7,7.1,8.2C258.5,104.2,258.8,111,256.5,117.1z"/>
					<g>
						<path class="st1" d="M208.7,131.8c-0.1,0.1-0.3,0.2-0.4,0.3c-4.4-4.4-16.6-19.5-6.9-41.9c0.1,0.1,0.3,0.2,0.4,0.3
							c0,0,0-0.1,0.1-0.1C192.3,112.6,204.5,127.5,208.7,131.8C208.8,131.8,208.8,131.8,208.7,131.8z"/>
						<path class="st1" d="M231.3,131.8C231.3,131.8,231.3,131.8,231.3,131.8c4.2-4.3,16.4-19.2,6.9-41.4c0,0,0,0.1,0.1,0.1
							c0.1-0.1,0.3-0.2,0.4-0.3c9.6,22.4-2.6,37.4-6.9,41.9C231.6,132,231.4,131.9,231.3,131.8z"/>
						<path class="st1" d="M219.7,131.3V88c0.1,0.1,0.2,0.1,0.3,0.2c0.1-0.1,0.2-0.1,0.3-0.2v43.3c-0.1-0.1-0.2-0.1-0.3-0.2
							C219.9,131.2,219.8,131.3,219.7,131.3z"/>
					</g>
				</g>
				<path class="st1" d="M214.4,113c4-0.5,8-0.7,12-0.6c-0.3,0-1.3-1.5-1.5-1.7c-0.5-0.6-1-1.2-1.4-1.8c-0.9-1.3-1.8-2.6-2.5-3.9
					c-0.2-0.4-0.6-1.8-1.1-2c-0.7-0.4-0.8,0.8-1,1.2c-0.5,1.4-1.1,2.8-1.8,4.2C216.4,109.9,215.5,111.5,214.4,113z"/>
				<path class="st1" d="M226.1,100.4C226.1,100.4,226.1,100.4,226.1,100.4c0,0.3,1.7,1.1,2,1.2c0.7,0.4,1.4,0.9,2.1,1.4
					c0.3,0.2,3.8,2.8,3.8,2.8c4.2-2.8,7.1-7,7.6-11.5c-2.2,1.8-4.9,3.3-7.7,4.3c-1.3,0.5-2.6,0.9-4,1.2
					C229.3,99.9,226.3,100.1,226.1,100.4z"/>
				<path class="st1" d="M213.3,99.9C213.4,99.9,213.4,99.9,213.3,99.9c0,0.3-1.6,1.1-1.9,1.3c-0.7,0.5-1.4,1-2.1,1.5
					c-0.3,0.2-3.6,3-3.6,3c-4.4-2.6-7.5-6.6-8.4-11.1c2.3,1.8,5.1,3,8,3.9c1.3,0.4,2.7,0.8,4.1,1C210.1,99.6,213.1,99.6,213.3,99.9z
					"/>
				<path class="st1" d="M220.2,117.2c5.1,0.3,10-1.3,14.2-3.2s8-4.3,12.4-6c-3.3,2.4-5.1,5.6-7,8.6s-4.3,6.1-8.6,7.7
					c-3.3,1.3-7.3,1.4-11.1,1.5L220.2,117.2z"/>
				<path class="st1" d="M220.2,117.2c-5.1,0.3-10-1.3-14.2-3.2s-8-4.3-12.4-6c3.3,2.4,5.1,5.6,7,8.6s4.3,6.1,8.6,7.7
					c3.3,1.3,7.3,1.4,11.1,1.5L220.2,117.2z"/>
				<path class="st0" d="M232.8,113c0.5,1.9,1.2,3.8,2,5.6c-2,0.6-4,1.1-6,1.7c0.3-1.7-0.1-3.4-1-4.9
					C229.6,114.7,231.3,114,232.8,113z"/>
				<path class="st0" d="M209.8,120.3c2,1,4,1.9,6.1,2.8c-0.9,1.6-1.9,3.2-2.8,4.8c-1.2-1.3-2.9-2.4-4.8-2.9
					C208.9,123.5,209.5,121.8,209.8,120.3z"/>
			</g>
			<g>
				<path class="st0" d="M168.6,107.6c-1.1-0.1-1.9-1-2.2-2c-0.2-0.9-0.1-1.9-0.3-2.9c-0.2-1.2-1-2.4-2.2-3.1
					c-1.2-0.7-2.8-0.9-4.1-0.3c-1.3,0.5-2.2,1.8-2.1,3c0,0.3,0.1,0.6,0.4,0.8c0.3,0.2,0.7,0.3,1,0.2c0.7-0.3,0.3-1.2,0.6-1.8
					c0.2-0.6,1.1-0.9,1.8-0.7s1.3,0.6,1.6,1.2c1.4,1.9,0.7,4.7-1.5,6c0.8,0.4,1.6,1,2.5,1.2c0.9,0.3,1.8,0.4,2.7,0.2
					C167.7,109.2,168.4,108.4,168.6,107.6z"/>
				<g>
					<path class="st2" d="M185.6,128.7c-2.1,3.8-4,6.4-8.1,8.6c-1.9,1-6.9,1.2-9.4-1c-1,0.5-5.3,0.9-7.1-1.2
						c-2.4,1.6-6.4,0.4-7.3-0.3c-3.1,1.6-7.8,0.3-9.4-1.1c-3.4-3-4.5-5.9-5.4-10c-0.9-4.1-0.1-8.4,2.3-12.1c1.4-2.1,2.6-3.9,5.3-4.8
						c2.7-0.9,4.9-0.9,6.6,1.1c0.8-1.2,4-2.1,6.2-2c1.6,0,4.7,0.8,5.7,1.8c1.2-0.8,4.5-0.8,6-0.5c2.1,0.4,5,2,5.4,3.3
						c2.2-1.6,4.4-1.1,6.7,0.3c2.3,1.4,3.1,3.4,3.8,5.7C188.1,120.6,187.6,125,185.6,128.7z"/>
					<g>
						<path class="st1" d="M153.7,134.8c-0.1,0.1-0.2,0.1-0.3,0.1c-2.4-3.1-8.8-13.6-0.5-27.3c0.1,0.1,0.1,0.2,0.2,0.2
							c0,0,0,0,0-0.1C145,121.4,151.4,131.8,153.7,134.8C153.7,134.9,153.7,134.8,153.7,134.8z"/>
						<path class="st1" d="M168.1,136.4C168.1,136.4,168.1,136.4,168.1,136.4c3.1-2.4,12.3-11.1,8.3-26c0,0,0,0,0,0.1
							c0.1-0.1,0.2-0.1,0.3-0.2c4,14.9-5.2,23.8-8.4,26.3C168.3,136.5,168.2,136.4,168.1,136.4z"/>
						<path class="st1" d="M160.8,135.3l4.1-27.7c0.1,0.1,0.1,0.1,0.1,0.1c0.1,0,0.1-0.1,0.2-0.1l-4.1,27.7
							c-0.1-0.1-0.1-0.1-0.1-0.1C160.9,135.2,160.8,135.3,160.8,135.3z"/>
					</g>
				</g>
				<path class="st1" d="M159.3,123.3c2.6-0.1,5.2,0.1,7.7,0.5c-0.2,0-0.7-1-0.8-1.2c-0.3-0.4-0.5-0.8-0.7-1.3
					c-0.5-0.9-0.9-1.8-1.2-2.7c-0.1-0.3-0.2-1.2-0.5-1.4c-0.4-0.3-0.6,0.4-0.7,0.7c-0.5,0.9-1,1.7-1.6,2.6
					C160.8,121.5,160.1,122.4,159.3,123.3z"/>
				<path class="st1" d="M162.4,126.3c3.2,0.5,6.5-0.1,9.4-1.1c2.9-0.9,5.5-2.2,8.5-3c-2.4,1.3-3.8,3.2-5.3,5s-3.4,3.6-6.2,4.4
					c-2.2,0.6-4.8,0.4-7.2,0.2L162.4,126.3z"/>
				<path class="st1" d="M162.4,126.3c-3.3-0.2-6.3-1.5-8.8-3s-4.7-3.3-7.3-4.7c1.9,1.8,2.7,3.9,3.6,6s2.2,4.2,4.7,5.5
					c2,1,4.5,1.4,6.9,1.7L162.4,126.3z"/>
				<path class="st2" d="M170.9,124.5c0.2,1.3,0.4,2.5,0.7,3.7c-1.3,0.2-2.7,0.5-4,0.7c0.3-1.1,0.3-2.2-0.2-3.2
					C168.6,125.4,169.8,125,170.9,124.5z"/>
				<path class="st2" d="M155.5,127.6c1.2,0.8,2.4,1.5,3.6,2.2c-0.8,1-1.5,1.9-2.3,2.9c-0.6-0.9-1.6-1.7-2.8-2.2
					C154.6,129.5,155.1,128.5,155.5,127.6z"/>
				<path class="st1" d="M169.2,117.4c1.6-1.4,3-3,4.3-4.7c2.4,1.6,4.8,3.1,7.2,4.7C177,116.7,173,116.8,169.2,117.4z"/>
				<path class="st1" d="M159.5,116.9c-1.2-1.7-2.1-3.5-2.9-5.4c-2.7,1.1-5.5,2.1-8.3,3.1C152.1,114.7,156,115.6,159.5,116.9z"/>
			</g>
			<g>
				<path class="st0" d="M140.8,118.7c-2.5-1.7-6.1-1.6-9.1-0.6c-3,1-5.5,2.8-8.2,4.2c-2.3,1.2-4.9,2.1-7.7,2.3s-5.6-0.4-7.7-1.9
					s-3.2-4-2.5-6.3c0.7-2.2,3.5-3.9,6.2-3.5c1.4,0.2,2.7,1.1,2.9,2.3c0.2,1.2-1.2,2.4-2.6,2c1.2,0.4,3-0.3,3.5-1.3s0-2.3-0.9-3.2
					c-0.9-0.8-2.2-1.3-3.5-1.5c-1.7-0.3-3.7-0.1-4.8,1.1c-0.4-2.7-2.2-5.3-4.6-7c-2.4-1.7-5.6-2.7-8.7-2.6c-1.8,0-3.7,0.4-5.1,1.4
					c-1.4,1-2.2,2.4-3.4,3.5c-1.9,1.8-4.8,2.9-7.7,2.8c-1.6-0.1-3.3-0.5-4.2-1.7s-0.3-3,1.2-3.3c-1.9,0.2-2.7,2.2-2.3,3.6
					c0.3,1,1.2,1.8,2.2,2.3c1.4,0.8,3.2,1.2,4.9,1.1c2.4-0.2,4.7-1.3,6.7-2.5s3.9-2.6,6.2-3.4c2.3-0.8,5-1.1,7.1,0
					c1.4,0.7,2.4,2,2.9,3.3s0.8,2.7,1,4.1c0.5,3.1-0.7,6.4,1.5,9c2.2,2.5,5.6,4.1,9.2,4.6c3.6,0.5,7.3-0.1,10.7-1.2
					c3-1,5.7-2.5,8.8-3.2c3.3-0.7,7-0.3,10,1C141.7,122.6,141,120.4,140.8,118.7z"/>
				<path class="st0" d="M104,114.9c-2.3,3.6-6.7,6.2-11.4,7.1c-4.7,0.9-9.7,0.3-14.3-1.1c-3.6-1.2-6.9-2.8-10.5-4.1
					c-3.5-1.3-7.4-2.2-11.2-1.6c-2.9,0.4-5.6,1.7-8.1,3.1s-4.9,2.9-7.7,3.8s-5.9,1.3-8.7,0.3c-2.7-1-4.8-3.5-4.3-6
					c-1.5,2.8-0.2,6.3,2.9,7.9s7.1,1.6,10.6,0.8c3.5-0.8,6.8-2.4,10.1-3.7c3.3-1.3,6.9-2.5,10.5-2.4c6.3,0.1,11.7,3.7,17.6,5.6
					c5.7,1.8,12,1.9,17.8,0.3c1.6-0.4,3.1-1,4.8-1.2s3.4-0.2,4.8,0.6C104.3,121.8,102.9,118.1,104,114.9z"/>
				<path class="st0" d="M58.7,113c-3.1-1.9-5.9-4-9.1-5.6c-3.2-1.6-7-2.8-10.7-2.4c-6.9,0.7-11.9,6.3-18.7,7.5
					c-1.8,0.3-3.7,0.3-5.2-0.6c-1.5-0.8-2.3-2.7-1.3-4c-1.2,1.2-1,3.2,0.2,4.4c1.2,1.3,3,1.9,4.9,2.1c4.2,0.4,8.2-1.3,11.9-3
					c3.7-1.7,7.7-3.4,11.8-3.1c3.4,0.2,6.4,1.8,9.1,3.5s5.2,3.7,8.1,5.2c1.7,0.8,3.6,1.5,5.6,1.7c1,0.1,4.3,0.4,3.6-1
					c-0.6-1.2-3.5-1.5-4.7-2C62.2,115,60.4,114,58.7,113z"/>
			</g>
			<g>
				<path class="st0" d="M271.5,107.6c1.1-0.1,1.9-1,2.2-2c0.2-0.9,0.1-1.9,0.3-2.9c0.2-1.2,1-2.4,2.2-3.1s2.8-0.9,4.1-0.3
					c1.3,0.5,2.2,1.8,2.1,3c0,0.3-0.1,0.6-0.4,0.8s-0.7,0.3-1,0.2c-0.7-0.3-0.3-1.2-0.5-1.8c-0.2-0.6-1.1-0.9-1.8-0.7
					c-0.7,0.2-1.3,0.6-1.6,1.2c-1.4,1.9-0.7,4.7,1.5,6c-0.8,0.4-1.6,1-2.5,1.2c-0.9,0.3-1.8,0.4-2.7,0.2
					C272.4,109.2,271.6,108.4,271.5,107.6z"/>
				<g>
					<path class="st2" d="M254.4,128.7c2,3.8,4,6.4,8.1,8.6c1.9,1,6.9,1.2,9.4-1c1,0.5,5.3,0.9,7.1-1.2c2.4,1.6,6.4,0.4,7.3-0.3
						c3.1,1.6,7.8,0.3,9.4-1.1c3.4-3,4.5-5.9,5.4-10c0.9-4.1,0.1-8.4-2.3-12.1c-1.4-2.1-2.6-3.9-5.3-4.8s-4.9-0.9-6.6,1.1
						c-0.8-1.2-4-2.1-6.2-2c-1.5,0-4.7,0.8-5.7,1.8c-1.2-0.8-4.5-0.8-6-0.5c-2.1,0.4-5,2-5.4,3.3c-2.2-1.6-4.4-1.1-6.7,0.3
						c-2.3,1.4-3.1,3.4-3.8,5.7C251.9,120.6,252.4,125,254.4,128.7z"/>
					<g>
						<path class="st1" d="M286.3,134.8c0.1,0.1,0.2,0.1,0.3,0.1c2.4-3.1,8.8-13.6,0.5-27.3c-0.1,0.1-0.1,0.2-0.2,0.2c0,0,0,0,0-0.1
							C295,121.4,288.6,131.8,286.3,134.8C286.3,134.9,286.3,134.8,286.3,134.8z"/>
						<path class="st1" d="M271.9,136.4C271.9,136.4,272,136.4,271.9,136.4c-3.1-2.4-12.3-11.1-8.3-26c0,0,0,0,0,0.1
							c-0.1-0.1-0.2-0.1-0.3-0.2c-4,14.9,5.2,23.8,8.4,26.3C271.8,136.5,271.9,136.4,271.9,136.4z"/>
						<path class="st1" d="M279.3,135.3l-4.1-27.7c0,0.1-0.1,0.1-0.1,0.1c-0.1,0-0.1-0.1-0.2-0.1l4.1,27.7c0-0.1,0.1-0.1,0.1-0.1
							C279.1,135.2,279.2,135.3,279.3,135.3z"/>
					</g>
				</g>
				<path class="st1" d="M280.7,123.3c-2.6-0.1-5.2,0.1-7.7,0.5c0.2,0,0.7-1,0.8-1.2c0.3-0.4,0.5-0.8,0.7-1.3
					c0.5-0.9,0.9-1.8,1.2-2.7c0.1-0.3,0.2-1.2,0.5-1.4c0.4-0.3,0.6,0.4,0.7,0.7c0.5,0.9,1,1.7,1.6,2.6
					C279.2,121.5,279.9,122.4,280.7,123.3z"/>
				<path class="st1" d="M277.6,126.3c-3.2,0.5-6.5-0.1-9.4-1.1c-2.9-0.9-5.5-2.2-8.5-3c2.4,1.3,3.8,3.2,5.3,5s3.4,3.6,6.2,4.4
					c2.2,0.6,4.8,0.4,7.2,0.2L277.6,126.3z"/>
				<path class="st1" d="M277.6,126.3c3.3-0.2,6.3-1.5,8.8-3s4.7-3.3,7.3-4.7c-1.9,1.8-2.7,3.9-3.6,6s-2.2,4.2-4.7,5.5
					c-2,1-4.5,1.4-6.9,1.7L277.6,126.3z"/>
				<path class="st2" d="M269.2,124.5c-0.2,1.3-0.4,2.5-0.7,3.7c1.3,0.2,2.7,0.5,4,0.7c-0.3-1.1-0.3-2.2,0.2-3.2
					C271.4,125.4,270.2,125,269.2,124.5z"/>
				<path class="st2" d="M284.6,127.6c-1.2,0.8-2.4,1.5-3.6,2.2c0.8,1,1.5,1.9,2.3,2.9c0.6-0.9,1.6-1.7,2.8-2.2
					C285.4,129.5,284.9,128.5,284.6,127.6z"/>
				<path class="st1" d="M270.8,117.4c-1.6-1.4-3-3-4.3-4.7c-2.4,1.6-4.8,3.1-7.2,4.7C263.1,116.7,267,116.8,270.8,117.4z"/>
				<path class="st1" d="M280.5,116.9c1.2-1.7,2.1-3.5,2.9-5.4c2.7,1.1,5.5,2.1,8.3,3.1C287.9,114.7,284,115.6,280.5,116.9z"/>
			</g>
			<g>
				<path class="st0" d="M299.2,118.7c2.5-1.7,6.1-1.6,9.1-0.6c3,1,5.5,2.8,8.2,4.2c2.4,1.2,4.9,2.1,7.7,2.3s5.6-0.4,7.7-1.9
					c2.1-1.5,3.2-4,2.5-6.3c-0.7-2.2-3.5-3.9-6.2-3.5c-1.4,0.2-2.7,1.1-2.9,2.3c-0.2,1.2,1.2,2.4,2.6,2c-1.2,0.4-3-0.3-3.5-1.3
					s0-2.3,0.9-3.2c0.9-0.8,2.2-1.3,3.5-1.5c1.7-0.3,3.7-0.1,4.8,1.1c0.4-2.7,2.2-5.3,4.6-7c2.4-1.7,5.6-2.7,8.7-2.6
					c1.8,0,3.7,0.4,5.1,1.4c1.4,1,2.2,2.4,3.4,3.5c1.9,1.8,4.9,2.9,7.7,2.8c1.6-0.1,3.3-0.5,4.2-1.7s0.4-3-1.2-3.3
					c1.9,0.2,2.7,2.2,2.3,3.6c-0.3,1-1.2,1.8-2.2,2.3c-1.5,0.8-3.2,1.2-4.9,1.1c-2.5-0.2-4.7-1.3-6.7-2.5s-3.9-2.6-6.2-3.4
					c-2.3-0.8-5-1.1-7.1,0c-1.4,0.7-2.4,2-2.9,3.3s-0.8,2.7-1,4.1c-0.5,3.1,0.7,6.4-1.5,9c-2.1,2.5-5.6,4.1-9.2,4.6
					c-3.6,0.5-7.4-0.1-10.7-1.2c-3-1-5.7-2.5-8.9-3.2c-3.3-0.7-7-0.3-10,1C298.3,122.6,299,120.4,299.2,118.7z"/>
				<path class="st0" d="M336,114.9c2.3,3.6,6.7,6.2,11.4,7.1c4.7,0.9,9.7,0.3,14.3-1.1c3.6-1.2,6.9-2.8,10.5-4.1
					c3.5-1.3,7.4-2.2,11.2-1.6c2.9,0.4,5.6,1.7,8.1,3.1s4.9,2.9,7.7,3.8s5.9,1.3,8.7,0.3c2.8-1,4.8-3.5,4.3-6
					c1.5,2.8,0.2,6.3-2.9,7.9s-7.1,1.6-10.6,0.8c-3.5-0.8-6.8-2.4-10.1-3.7c-3.3-1.3-6.9-2.5-10.5-2.4c-6.3,0.1-11.6,3.7-17.6,5.6
					c-5.7,1.8-12,1.9-17.8,0.3c-1.6-0.4-3.1-1-4.8-1.2c-1.6-0.3-3.4-0.2-4.8,0.6C335.7,121.8,337.1,118.1,336,114.9z"/>
				<path class="st0" d="M381.3,113c3.1-1.9,5.9-4,9.1-5.6c3.2-1.6,7-2.8,10.7-2.4c6.9,0.7,11.9,6.3,18.7,7.5
					c1.8,0.3,3.7,0.3,5.2-0.6c1.5-0.8,2.3-2.7,1.3-4c1.2,1.2,1,3.2-0.2,4.4c-1.2,1.3-3,1.9-4.9,2.1c-4.2,0.4-8.2-1.3-11.9-3
					s-7.7-3.4-11.8-3.1c-3.4,0.2-6.4,1.8-9.1,3.5s-5.2,3.7-8.1,5.2c-1.7,0.8-3.6,1.5-5.6,1.7c-1,0.1-4.3,0.4-3.6-1
					c0.6-1.2,3.5-1.5,4.7-2C377.8,115,379.6,114,381.3,113z"/>
			</g>
			<path class="st0" d="M187.8,101.6c-4.3-1.2-8.1-3.8-10.4-7s-3.4-7.3-2.8-11.1c-5.1-2.9-11.9-3.6-17.8-2.3s-11.1,4.9-13.9,9.5
				c2.8-0.9,6.4-0.4,8.8,1.1c2.4,1.5,3.9,4.1,3.8,6.7c2.2-1.9,5.9-2.5,8.8-1.4s4.9,3.8,4.7,6.5c3.1-1.6,7.2-1.3,10.4,0
				c3.3,1.3,5.9,3.6,8.3,5.9C187.2,107.2,187.6,104,187.8,101.6z"/>
			<path class="st0" d="M252.2,101.6c4.3-1.2,8-3.8,10.5-7c2.4-3.3,3.4-7.3,2.8-11.1c5.1-2.9,11.9-3.6,17.8-2.3s11.1,4.9,13.9,9.5
				c-2.8-0.9-6.4-0.4-8.8,1.1c-2.5,1.5-3.9,4.1-3.8,6.7c-2.2-1.9-5.9-2.5-8.8-1.4s-4.9,3.8-4.7,6.5c-3.1-1.6-7.2-1.3-10.5,0
				c-3.3,1.3-5.9,3.6-8.3,5.9C252.8,107.2,252.4,104,252.2,101.6z"/>
		</g>
		<path class="st3" d="M372.9,108c0.3-3.2,2-6.2,4.6-8.5c2.6-2.2,6.2-3.7,9.9-3.9c-1.2,3-2.5,6-4.6,8.6s-5.2,4.8-8.8,5.5
			c1.8-2.5,3.6-4.9,5.4-7.4C376.8,103.6,374.5,105.7,372.9,108z"/>
		<path class="st4" d="M416.6,121.1c2.2-2.6,5.5-4.4,9.1-5.2s7.6-0.4,10.9,1c-2.8,2.1-5.8,4.1-9.2,5.3c-3.4,1.3-7.4,1.8-10.9,0.8
			c3-1.3,6.1-2.6,9.1-3.9C422.6,119.1,419.4,119.8,416.6,121.1z"/>
		<path class="st5" d="M67.2,108c-0.3-3.2-2-6.2-4.7-8.5c-2.6-2.2-6.2-3.7-9.9-3.9c1.2,3,2.5,6,4.6,8.6s5.2,4.8,8.8,5.5
			c-1.8-2.5-3.6-4.9-5.4-7.4C63.3,103.6,65.6,105.7,67.2,108z"/>
		<path class="st6" d="M23.4,121.1c-2.2-2.6-5.5-4.4-9.1-5.2s-7.6-0.4-10.9,1c2.8,2.1,5.8,4.1,9.2,5.3c3.4,1.3,7.4,1.8,10.9,0.8
			c-3-1.3-6.1-2.6-9.1-3.9C17.4,119.1,20.6,119.8,23.4,121.1z"/>
	</g>
</g>
<g id="old" class="st7">
	<rect x="10.2" y="20.3" class="st8" width="221.2" height="62.8"/>
	<text transform="matrix(1 0 0 1 36.3719 56.5825)" class="st9 st10 st11">Haunted</text>
	<rect x="189.9" y="20.3" class="st8" width="293.4" height="57.2"/>
	<text transform="matrix(1 0 0 1 219.7704 56.5824)" class="st9 st10 st11">Experiences </text>
</g>
<image style="overflow:visible;" width="279" height="66" xlink:href="haunted.png"  transform="matrix(0.6644 0 0 0.6021 27.2934 30.3167)">
</image>
<image style="overflow:visible;" width="418" height="66" xlink:href="experiences.png"  transform="matrix(0.5455 0 0 0.6647 224.9679 28.2513)">
</image>
</svg>
