<?xml version="1.0" encoding="utf-8"?>
<!-- Generator: Adobe Illustrator 25.3.1, SVG Export Plug-In . SVG Version: 6.00 Build 0)  -->
<svg version="1.1" xmlns="http://www.w3.org/2000/svg" xmlns:xlink="http://www.w3.org/1999/xlink" x="0px" y="0px"
	 viewBox="0 0 461.23 160.94" style="enable-background:new 0 0 461.23 160.94;" xml:space="preserve">
<style type="text/css">
	.st0{fill:#2F2B27;}
	.st1{fill:#FFFFFF;}
	.st2{fill:#F7921E;}
	.st3{fill:#60BB46;}
	.st4{fill:#72BF44;}
	.st5{fill:#76C043;}
	.st6{fill:#81C341;}
	.st7{fill:none;}
	.st8{font-family:'Archetype-Regular';}
	.st9{font-size:48px;}
</style>
<g id="Layer_1">
	<g>
		<g>
			<g>
				<path class="st0" d="M219.75,87.3c1.22-1.04,2.44-2.1,3.29-3.38c0.85-1.28,1.3-2.81,0.87-4.23c-0.43-1.41-1.64-2.53-2.64-3.71
					c-1-1.18-1.84-2.66-1.36-4.06c1.86-1.23,3.17-3.03,3.86-4.94c1.01,0.95,2.22,1.68,3.67,2.05c-2.11,0.57-3.27,2.67-2.99,4.53
					c0.28,1.87,1.71,3.48,3.4,4.69c0.57,0.41,1.22,0.84,1.36,1.47c0.1,0.44-0.08,0.88-0.2,1.31c-0.7,2.55,0.77,5.41,3.44,6.7
					c-2.48,1.01-5.4,1.28-8.01,0.55C222.93,87.87,221.34,87.25,219.75,87.3z"/>
				<g>
					<path class="st0" d="M262.12,117.14c-2.3,6.16-4.67,10.49-10.56,14.58c-2.72,1.89-10.27,3.05-14.64,0.07
						c-1.46,0.98-7.88,2.19-11.27-0.68c-3.39,2.86-9.81,1.66-11.27,0.68c-4.37,2.97-11.92,1.81-14.64-0.07
						c-5.89-4.09-8.26-8.42-10.56-14.58c-2.3-6.16-2.04-12.99,0.7-19.02c1.61-3.53,3.21-6.39,7.11-8.21
						c3.9-1.81,7.36-2.17,10.42,0.58c0.89-1.9,5.72-3.81,9.09-4.13c2.39-0.22,7.45,0.37,9.14,1.82c1.7-1.45,6.76-2.04,9.14-1.82
						c3.37,0.32,8.21,2.23,9.09,4.13c3.06-2.75,6.51-2.39,10.42-0.58c3.9,1.81,5.5,4.68,7.11,8.21
						C264.17,104.15,264.42,110.98,262.12,117.14z"/>
					<g>
						<path class="st1" d="M214.39,131.8c-0.14,0.09-0.28,0.17-0.42,0.25c-4.37-4.44-16.58-19.52-6.95-41.89
							c0.14,0.11,0.27,0.22,0.41,0.34c0.01-0.03,0.04-0.06,0.05-0.09c-9.51,22.21,2.71,37.13,6.96,41.41
							C214.42,131.81,214.4,131.81,214.39,131.8z"/>
						<path class="st1" d="M236.93,131.8c-0.01,0.01-0.03,0.02-0.05,0.03c4.25-4.28,16.48-19.2,6.96-41.41
							c0.02,0.03,0.04,0.06,0.05,0.09c0.13-0.12,0.27-0.23,0.41-0.34c9.63,22.36-2.58,37.45-6.95,41.89
							C237.21,131.97,237.06,131.89,236.93,131.8z"/>
						<path class="st1" d="M225.39,131.31V87.99c0.09,0.06,0.19,0.13,0.27,0.2c0.08-0.07,0.17-0.13,0.27-0.2v43.32
							c-0.09-0.07-0.18-0.12-0.27-0.2C225.57,131.19,225.48,131.25,225.39,131.31z"/>
					</g>
				</g>
				<path class="st1" d="M220.09,112.99c3.97-0.5,8-0.69,12.02-0.56c-0.32-0.01-1.27-1.46-1.47-1.7c-0.49-0.6-0.96-1.21-1.41-1.83
					c-0.92-1.26-1.75-2.56-2.5-3.9c-0.24-0.42-0.63-1.79-1.07-2.04c-0.72-0.4-0.81,0.76-0.97,1.2c-0.52,1.42-1.13,2.82-1.82,4.19
					C222.06,109.95,221.13,111.5,220.09,112.99z"/>
				<path class="st1" d="M231.74,100.36c-0.01,0.01-0.01,0.03-0.01,0.04c0.04,0.29,1.67,1.01,1.98,1.2
					c0.73,0.45,1.45,0.91,2.15,1.39c0.34,0.23,3.76,2.82,3.79,2.8c4.19-2.77,7.09-6.99,7.62-11.48c-2.17,1.85-4.86,3.28-7.68,4.29
					c-1.31,0.47-2.64,0.91-4.02,1.2C234.97,99.92,231.94,100.05,231.74,100.36z"/>
				<path class="st1" d="M218.99,99.91c0.01,0.01,0.01,0.03,0.01,0.04c-0.02,0.3-1.6,1.09-1.9,1.29c-0.7,0.48-1.39,0.98-2.06,1.49
					c-0.32,0.24-3.57,3-3.59,2.98c-4.37-2.56-7.54-6.64-8.37-11.1c2.29,1.75,5.07,3.04,7.96,3.92c1.34,0.41,2.7,0.78,4.1,1
					C215.73,99.62,218.76,99.61,218.99,99.91z"/>
				<path class="st1" d="M225.82,117.19c5.06,0.27,9.97-1.28,14.17-3.22c4.2-1.94,7.96-4.3,12.35-6.03
					c-3.32,2.39-5.08,5.61-6.97,8.64c-1.89,3.03-4.34,6.12-8.57,7.73c-3.32,1.26-7.27,1.43-11.07,1.49L225.82,117.19z"/>
				<path class="st1" d="M225.82,117.19c-5.06,0.27-9.97-1.28-14.17-3.22c-4.2-1.94-7.96-4.3-12.35-6.03
					c3.32,2.39,5.08,5.61,6.97,8.64c1.89,3.03,4.34,6.12,8.57,7.73c3.32,1.26,7.27,1.43,11.07,1.49L225.82,117.19z"/>
				<path class="st0" d="M238.49,113.02c0.54,1.9,1.2,3.77,1.98,5.61c-2,0.57-3.99,1.14-5.99,1.71c0.25-1.68-0.09-3.41-0.97-4.93
					C235.2,114.74,236.98,113.96,238.49,113.02z"/>
				<path class="st0" d="M215.46,120.28c1.96,1.02,3.99,1.94,6.06,2.78c-0.94,1.61-1.87,3.21-2.82,4.82
					c-1.22-1.33-2.9-2.36-4.78-2.9C214.56,123.47,215.17,121.85,215.46,120.28z"/>
			</g>
			<g>
				<path class="st0" d="M174.22,107.63c-1.14-0.07-1.94-1.04-2.19-1.99c-0.24-0.95-0.11-1.95-0.29-2.91
					c-0.23-1.22-1.02-2.38-2.22-3.06c-1.2-0.69-2.83-0.86-4.14-0.33c-1.31,0.52-2.22,1.77-2.06,2.99c0.04,0.31,0.15,0.63,0.41,0.85
					c0.26,0.22,0.68,0.33,1,0.18c0.69-0.32,0.29-1.23,0.55-1.85c0.24-0.59,1.11-0.87,1.82-0.71c0.71,0.16,1.26,0.64,1.64,1.18
					c1.37,1.93,0.68,4.73-1.49,6.03c0.78,0.43,1.6,0.96,2.47,1.24c0.87,0.27,1.83,0.38,2.72,0.15
					C173.3,109.17,174.05,108.41,174.22,107.63z"/>
				<g>
					<path class="st2" d="M191.23,128.74c-2.05,3.78-3.98,6.39-8.13,8.6c-1.91,1.02-6.85,1.24-9.36-0.96
						c-1.03,0.53-5.25,0.86-7.14-1.2c-2.43,1.6-6.43,0.39-7.27-0.34c-3.08,1.6-7.79,0.34-9.35-1.05c-3.38-3.02-4.48-5.95-5.37-10.04
						c-0.88-4.1-0.08-8.44,2.25-12.11c1.36-2.14,2.65-3.87,5.32-4.76c2.67-0.89,4.91-0.88,6.6,1.08c0.75-1.15,4.02-2.05,6.2-2.02
						c1.55,0.02,4.73,0.75,5.67,1.79c1.22-0.81,4.51-0.84,6.02-0.54c2.12,0.43,5.03,1.99,5.42,3.26c2.22-1.55,4.39-1.08,6.71,0.34
						c2.32,1.43,3.07,3.37,3.77,5.73C193.76,120.58,193.28,124.96,191.23,128.74z"/>
					<g>
						<path class="st1" d="M159.33,134.84c-0.1,0.05-0.2,0.09-0.3,0.13c-2.38-3.13-8.75-13.62-0.48-27.25
							c0.08,0.08,0.15,0.16,0.23,0.24c0.01-0.02,0.03-0.03,0.04-0.05c-8.18,13.54-1.78,23.92,0.53,26.94
							C159.35,134.85,159.34,134.84,159.33,134.84z"/>
						<path class="st1" d="M173.74,136.38c-0.01,0-0.02,0.01-0.03,0.01c3.12-2.45,12.35-11.14,8.37-25.99
							c0.01,0.02,0.02,0.04,0.02,0.06c0.1-0.07,0.19-0.13,0.29-0.19c4.04,14.95-5.19,23.76-8.4,26.3
							C173.9,136.51,173.81,136.45,173.74,136.38z"/>
						<path class="st1" d="M166.41,135.28l4.1-27.69c0.05,0.05,0.11,0.09,0.15,0.14c0.06-0.04,0.12-0.07,0.19-0.11l-4.1,27.69
							c-0.05-0.05-0.1-0.09-0.15-0.14C166.54,135.22,166.47,135.25,166.41,135.28z"/>
					</g>
				</g>
				<path class="st1" d="M164.92,123.27c2.59-0.05,5.18,0.11,7.73,0.47c-0.2-0.03-0.68-1.02-0.78-1.19
					c-0.26-0.42-0.5-0.84-0.73-1.26c-0.47-0.87-0.88-1.76-1.23-2.67c-0.11-0.29-0.23-1.19-0.49-1.37c-0.42-0.3-0.59,0.43-0.73,0.7
					c-0.47,0.87-0.99,1.72-1.56,2.55C166.46,121.46,165.72,122.39,164.92,123.27z"/>
				<path class="st1" d="M168.02,126.28c3.21,0.52,6.49-0.13,9.36-1.08c2.87-0.95,5.5-2.21,8.47-3.01c-2.35,1.3-3.78,3.24-5.27,5.04
					c-1.49,1.8-3.36,3.62-6.21,4.35c-2.24,0.58-4.78,0.41-7.22,0.19L168.02,126.28z"/>
				<path class="st1" d="M168.02,126.28c-3.26-0.18-6.25-1.5-8.75-3.03c-2.5-1.53-4.68-3.3-7.33-4.7c1.89,1.76,2.72,3.94,3.64,6
					c0.92,2.06,2.2,4.21,4.74,5.53c2,1.03,4.51,1.41,6.94,1.71L168.02,126.28z"/>
				<path class="st2" d="M176.51,124.49c0.17,1.25,0.41,2.49,0.73,3.72c-1.33,0.23-2.66,0.46-3.99,0.68
					c0.32-1.05,0.26-2.19-0.16-3.22C174.24,125.36,175.46,124.98,176.51,124.49z"/>
				<path class="st2" d="M161.1,127.55c1.16,0.78,2.36,1.52,3.61,2.19c-0.76,0.96-1.5,1.92-2.26,2.89c-0.65-0.94-1.63-1.7-2.78-2.18
					C160.23,129.53,160.77,128.53,161.1,127.55z"/>
				<path class="st1" d="M174.87,117.45c1.6-1.45,3.03-3.03,4.27-4.72c2.39,1.58,4.83,3.08,7.22,4.66
					C182.61,116.74,178.63,116.85,174.87,117.45z"/>
				<path class="st1" d="M165.13,116.89c-1.17-1.72-2.14-3.54-2.9-5.42c-2.74,1.07-5.53,2.07-8.27,3.14
					C157.78,114.71,161.62,115.59,165.13,116.89z"/>
			</g>
			<g>
				<path class="st0" d="M146.43,118.68c-2.46-1.73-6.14-1.58-9.1-0.56c-2.96,1.02-5.47,2.79-8.22,4.16
					c-2.35,1.18-4.94,2.08-7.66,2.28c-2.72,0.2-5.58-0.38-7.66-1.89c-2.08-1.51-3.21-4.01-2.48-6.25c0.73-2.24,3.51-3.95,6.2-3.54
					c1.38,0.21,2.72,1.07,2.92,2.25c0.19,1.18-1.24,2.44-2.56,2.03c1.23,0.45,3-0.28,3.49-1.34c0.49-1.06,0.04-2.32-0.86-3.15
					c-0.91-0.83-2.21-1.29-3.52-1.5c-1.72-0.28-3.74-0.08-4.82,1.09c-0.42-2.66-2.21-5.29-4.61-7.03c-2.4-1.73-5.57-2.68-8.72-2.61
					c-1.83,0.04-3.71,0.45-5.13,1.43c-1.38,0.96-2.22,2.37-3.41,3.5c-1.93,1.83-4.85,2.89-7.74,2.78c-1.6-0.06-3.32-0.53-4.19-1.68
					c-0.87-1.15-0.35-3.03,1.21-3.35c-1.89,0.21-2.74,2.16-2.26,3.61c0.33,0.98,1.22,1.76,2.23,2.31c1.45,0.79,3.21,1.16,4.92,1.05
					c2.45-0.16,4.68-1.26,6.68-2.47c2-1.21,3.91-2.58,6.17-3.41c2.25-0.83,5-1.06,7.09,0.03c1.4,0.73,2.36,1.97,2.93,3.28
					c0.57,1.31,0.78,2.72,1,4.1c0.47,3.09-0.67,6.44,1.48,8.96c2.15,2.51,5.61,4.11,9.23,4.6c3.61,0.49,7.35-0.06,10.74-1.23
					c2.97-1.03,5.74-2.54,8.85-3.2c3.33-0.7,6.96-0.34,10.01,0.99C147.38,122.6,146.62,120.38,146.43,118.68z"/>
				<path class="st0" d="M109.64,114.88c-2.28,3.64-6.67,6.15-11.39,7.06c-4.72,0.92-9.74,0.35-14.27-1.1
					c-3.6-1.15-6.93-2.82-10.47-4.1c-3.54-1.27-7.44-2.15-11.22-1.56c-2.92,0.45-5.57,1.74-8.06,3.12s-4.93,2.87-7.68,3.82
					s-5.93,1.3-8.68,0.34c-2.75-0.96-4.84-3.49-4.3-5.98c-1.52,2.84-0.19,6.3,2.94,7.91c3.13,1.61,7.12,1.59,10.65,0.76
					c3.53-0.83,6.76-2.38,10.06-3.72c3.31-1.34,6.85-2.49,10.51-2.42c6.3,0.12,11.65,3.73,17.56,5.58c5.66,1.77,12,1.89,17.75,0.34
					c1.59-0.43,3.14-0.98,4.78-1.24s3.43-0.18,4.84,0.58C109.95,121.84,108.52,118.1,109.64,114.88z"/>
				<path class="st0" d="M64.38,112.96c-3.06-1.87-5.9-4-9.14-5.63c-3.24-1.63-7-2.76-10.73-2.37c-6.9,0.72-11.91,6.3-18.71,7.52
					c-1.77,0.32-3.73,0.29-5.24-0.56c-1.5-0.85-2.28-2.73-1.28-4.01c-1.21,1.22-1,3.16,0.16,4.42c1.16,1.26,3.05,1.89,4.92,2.05
					c4.16,0.37,8.16-1.31,11.87-2.96c3.71-1.65,7.67-3.36,11.84-3.07c3.37,0.23,6.43,1.76,9.13,3.5c2.7,1.74,5.18,3.74,8.12,5.16
					c1.73,0.84,3.64,1.46,5.62,1.65c1,0.1,4.31,0.43,3.56-0.98c-0.63-1.19-3.49-1.5-4.71-1.97
					C67.87,114.98,66.08,114.01,64.38,112.96z"/>
			</g>
			<g>
				<path class="st0" d="M277.1,107.63c1.14-0.07,1.94-1.04,2.19-1.99c0.24-0.95,0.11-1.95,0.29-2.91c0.23-1.22,1.02-2.38,2.22-3.06
					s2.83-0.86,4.14-0.33c1.31,0.52,2.22,1.77,2.06,2.99c-0.04,0.31-0.15,0.63-0.41,0.85c-0.26,0.22-0.68,0.33-1,0.18
					c-0.69-0.32-0.29-1.23-0.55-1.85c-0.24-0.59-1.11-0.87-1.82-0.71c-0.71,0.16-1.26,0.64-1.64,1.18
					c-1.37,1.93-0.68,4.73,1.49,6.03c-0.78,0.43-1.6,0.96-2.47,1.24c-0.87,0.27-1.83,0.38-2.72,0.15
					C278.01,109.17,277.27,108.41,277.1,107.63z"/>
				<g>
					<path class="st2" d="M260.08,128.74c2.05,3.78,3.98,6.39,8.13,8.6c1.91,1.02,6.85,1.24,9.36-0.96c1.03,0.53,5.25,0.86,7.14-1.2
						c2.43,1.6,6.43,0.39,7.27-0.34c3.08,1.6,7.79,0.34,9.35-1.05c3.38-3.02,4.48-5.95,5.37-10.04c0.88-4.1,0.08-8.44-2.25-12.11
						c-1.36-2.14-2.65-3.87-5.32-4.76c-2.67-0.89-4.91-0.88-6.6,1.08c-0.75-1.15-4.02-2.05-6.2-2.02c-1.55,0.02-4.73,0.75-5.67,1.79
						c-1.22-0.81-4.51-0.84-6.02-0.54c-2.12,0.43-5.03,1.99-5.42,3.26c-2.22-1.55-4.39-1.08-6.71,0.34
						c-2.32,1.43-3.07,3.37-3.77,5.73C257.55,120.58,258.03,124.96,260.08,128.74z"/>
					<g>
						<path class="st1" d="M291.98,134.84c0.1,0.05,0.2,0.09,0.3,0.13c2.38-3.13,8.75-13.62,0.48-27.25
							c-0.08,0.08-0.15,0.16-0.23,0.24c-0.01-0.02-0.03-0.03-0.04-0.05c8.18,13.54,1.78,23.92-0.53,26.94
							C291.96,134.85,291.98,134.84,291.98,134.84z"/>
						<path class="st1" d="M277.58,136.38c0.01,0,0.02,0.01,0.03,0.01c-3.12-2.45-12.35-11.14-8.37-25.99
							c-0.01,0.02-0.02,0.04-0.02,0.06c-0.1-0.07-0.19-0.13-0.29-0.19c-4.04,14.95,5.19,23.76,8.4,26.3
							C277.41,136.51,277.5,136.45,277.58,136.38z"/>
						<path class="st1" d="M284.9,135.28l-4.1-27.69c-0.05,0.05-0.11,0.09-0.15,0.14c-0.06-0.04-0.12-0.07-0.19-0.11l4.1,27.69
							c0.05-0.05,0.1-0.09,0.15-0.14C284.78,135.22,284.84,135.25,284.9,135.28z"/>
					</g>
				</g>
				<path class="st1" d="M286.39,123.27c-2.59-0.05-5.18,0.11-7.73,0.47c0.2-0.03,0.68-1.02,0.78-1.19c0.26-0.42,0.5-0.84,0.73-1.26
					c0.47-0.87,0.88-1.76,1.23-2.67c0.11-0.29,0.23-1.19,0.49-1.37c0.42-0.3,0.59,0.43,0.73,0.7c0.47,0.87,0.99,1.72,1.56,2.55
					C284.85,121.46,285.59,122.39,286.39,123.27z"/>
				<path class="st1" d="M283.29,126.28c-3.21,0.52-6.49-0.13-9.36-1.08c-2.87-0.95-5.5-2.21-8.47-3.01
					c2.35,1.3,3.78,3.24,5.27,5.04c1.49,1.8,3.36,3.62,6.21,4.35c2.24,0.58,4.78,0.41,7.22,0.19L283.29,126.28z"/>
				<path class="st1" d="M283.29,126.28c3.26-0.18,6.25-1.5,8.75-3.03c2.5-1.53,4.68-3.3,7.33-4.7c-1.89,1.76-2.72,3.94-3.64,6
					c-0.92,2.06-2.2,4.21-4.74,5.53c-2,1.03-4.51,1.41-6.94,1.71L283.29,126.28z"/>
				<path class="st2" d="M274.8,124.49c-0.17,1.25-0.41,2.49-0.73,3.72c1.33,0.23,2.66,0.46,3.99,0.68
					c-0.32-1.05-0.26-2.19,0.16-3.22C277.07,125.36,275.85,124.98,274.8,124.49z"/>
				<path class="st2" d="M290.21,127.55c-1.16,0.78-2.36,1.52-3.61,2.19c0.76,0.96,1.5,1.92,2.26,2.89c0.65-0.94,1.63-1.7,2.78-2.18
					C291.09,129.53,290.54,128.53,290.21,127.55z"/>
				<path class="st1" d="M276.44,117.45c-1.6-1.45-3.03-3.03-4.27-4.72c-2.39,1.58-4.83,3.08-7.22,4.66
					C268.71,116.74,272.68,116.85,276.44,117.45z"/>
				<path class="st1" d="M286.18,116.89c1.17-1.72,2.14-3.54,2.9-5.42c2.74,1.07,5.53,2.07,8.27,3.14
					C293.53,114.71,289.69,115.59,286.18,116.89z"/>
			</g>
			<g>
				<path class="st0" d="M304.88,118.68c2.46-1.73,6.14-1.58,9.1-0.56c2.96,1.02,5.47,2.79,8.22,4.16c2.35,1.18,4.94,2.08,7.66,2.28
					c2.72,0.2,5.58-0.38,7.66-1.89c2.08-1.51,3.21-4.01,2.48-6.25c-0.73-2.24-3.51-3.95-6.2-3.54c-1.38,0.21-2.72,1.07-2.92,2.25
					c-0.19,1.18,1.24,2.44,2.56,2.03c-1.23,0.45-3-0.28-3.49-1.34c-0.49-1.06-0.04-2.32,0.86-3.15c0.91-0.83,2.21-1.29,3.52-1.5
					c1.72-0.28,3.74-0.08,4.82,1.09c0.42-2.66,2.21-5.29,4.61-7.03c2.4-1.73,5.57-2.68,8.72-2.61c1.83,0.04,3.71,0.45,5.13,1.43
					c1.38,0.96,2.22,2.37,3.41,3.5c1.93,1.83,4.85,2.89,7.74,2.78c1.61-0.06,3.32-0.53,4.19-1.68c0.87-1.15,0.35-3.03-1.21-3.35
					c1.89,0.21,2.74,2.16,2.26,3.61c-0.33,0.98-1.22,1.76-2.23,2.31c-1.45,0.79-3.21,1.16-4.92,1.05c-2.45-0.16-4.68-1.26-6.68-2.47
					c-2-1.21-3.91-2.58-6.17-3.41c-2.25-0.83-4.99-1.06-7.09,0.03c-1.4,0.73-2.36,1.97-2.93,3.28c-0.57,1.31-0.78,2.72-1,4.1
					c-0.47,3.09,0.67,6.44-1.48,8.96c-2.15,2.51-5.61,4.11-9.23,4.6c-3.61,0.49-7.35-0.06-10.74-1.23c-2.97-1.03-5.74-2.54-8.85-3.2
					c-3.33-0.7-6.96-0.34-10.01,0.99C303.94,122.6,304.69,120.38,304.88,118.68z"/>
				<path class="st0" d="M341.67,114.88c2.28,3.64,6.67,6.15,11.39,7.06c4.72,0.92,9.74,0.35,14.27-1.1
					c3.6-1.15,6.93-2.82,10.47-4.1c3.54-1.27,7.44-2.15,11.22-1.56c2.92,0.45,5.57,1.74,8.06,3.12s4.93,2.87,7.68,3.82
					s5.93,1.3,8.68,0.34c2.75-0.96,4.84-3.49,4.3-5.98c1.52,2.84,0.19,6.3-2.94,7.91c-3.13,1.61-7.12,1.59-10.65,0.76
					c-3.53-0.83-6.76-2.38-10.06-3.72c-3.31-1.34-6.85-2.49-10.51-2.42c-6.3,0.12-11.65,3.73-17.56,5.58
					c-5.66,1.77-12,1.89-17.75,0.34c-1.59-0.43-3.14-0.98-4.78-1.24c-1.64-0.26-3.43-0.18-4.84,0.58
					C341.36,121.84,342.79,118.1,341.67,114.88z"/>
				<path class="st0" d="M386.94,112.96c3.06-1.87,5.9-4,9.14-5.63c3.24-1.63,7-2.76,10.73-2.37c6.9,0.72,11.91,6.3,18.71,7.52
					c1.77,0.32,3.73,0.29,5.24-0.56c1.5-0.85,2.28-2.73,1.28-4.01c1.21,1.22,1,3.16-0.16,4.42c-1.16,1.26-3.05,1.89-4.92,2.05
					c-4.16,0.37-8.16-1.31-11.87-2.96c-3.71-1.65-7.67-3.36-11.84-3.07c-3.37,0.23-6.43,1.76-9.13,3.5
					c-2.7,1.74-5.18,3.74-8.12,5.16c-1.73,0.84-3.64,1.46-5.62,1.65c-1,0.1-4.31,0.43-3.56-0.98c0.63-1.19,3.49-1.5,4.71-1.97
					C383.44,114.98,385.23,114.01,386.94,112.96z"/>
			</g>
			<path class="st0" d="M193.48,101.6c-4.29-1.23-8.05-3.75-10.45-7.02c-2.4-3.27-3.42-7.25-2.84-11.07
				c-5.09-2.87-11.88-3.64-17.78-2.32c-5.9,1.32-11.07,4.86-13.85,9.49c2.84-0.91,6.37-0.39,8.83,1.13
				c2.45,1.52,3.92,4.13,3.78,6.71c2.23-1.92,5.88-2.51,8.78-1.43c2.9,1.08,4.86,3.76,4.72,6.46c3.11-1.59,7.18-1.3,10.45,0.04
				c3.27,1.35,5.87,3.61,8.26,5.94C192.83,107.2,193.25,103.96,193.48,101.6z"/>
			<path class="st0" d="M257.84,101.6c4.29-1.23,8.05-3.75,10.45-7.02c2.4-3.27,3.42-7.25,2.84-11.07
				c5.09-2.87,11.88-3.64,17.78-2.32c5.9,1.32,11.07,4.86,13.85,9.49c-2.84-0.91-6.37-0.39-8.83,1.13
				c-2.45,1.52-3.92,4.13-3.78,6.71c-2.23-1.92-5.88-2.51-8.78-1.43c-2.9,1.08-4.86,3.76-4.72,6.46c-3.11-1.59-7.18-1.3-10.45,0.04
				c-3.27,1.35-5.87,3.61-8.26,5.94C258.48,107.2,258.06,103.96,257.84,101.6z"/>
		</g>
		<path class="st3" d="M378.52,107.96c0.33-3.16,2.01-6.21,4.65-8.46c2.64-2.24,6.23-3.67,9.94-3.94c-1.17,3.01-2.48,6.03-4.59,8.64
			c-2.11,2.61-5.16,4.8-8.8,5.48c1.81-2.46,3.62-4.92,5.42-7.37C382.4,103.61,380.1,105.65,378.52,107.96z"/>
		<path class="st4" d="M422.27,121.08c2.22-2.55,5.52-4.41,9.15-5.15c3.63-0.74,7.56-0.37,10.9,1.04c-2.84,2.05-5.82,4.05-9.21,5.34
			c-3.4,1.29-7.35,1.81-10.87,0.78c3.05-1.3,6.1-2.59,9.15-3.89C428.25,119.09,425.04,119.81,422.27,121.08z"/>
		<path class="st5" d="M72.8,107.96c-0.33-3.16-2.01-6.21-4.65-8.46c-2.64-2.24-6.23-3.67-9.94-3.94c1.17,3.01,2.48,6.03,4.59,8.64
			c2.11,2.61,5.16,4.8,8.8,5.48c-1.81-2.46-3.62-4.92-5.42-7.37C68.91,103.61,71.21,105.65,72.8,107.96z"/>
		<path class="st6" d="M29.04,121.08c-2.22-2.55-5.52-4.41-9.15-5.15c-3.63-0.74-7.56-0.37-10.9,1.04c2.84,2.05,5.82,4.05,9.21,5.34
			c3.4,1.29,7.35,1.81,10.87,0.78c-3.05-1.3-6.1-2.59-9.15-3.89C23.06,119.09,26.27,119.81,29.04,121.08z"/>
	</g>
</g>
<g id="Layer_2">
	<rect x="12.26" y="20.34" class="st7" width="221.24" height="62.83"/>
	<text transform="matrix(1 0 0 1 38.4739 56.5825)" class="st8 st9">Haunted</text>
	<rect x="191.97" y="20.34" class="st7" width="293.36" height="57.18"/>
	<text transform="matrix(1 0 0 1 221.8724 56.5824)" class="st8 st9">Experiences </text>
</g>
</svg>
