<?xml version="1.0" encoding="utf-8"?>
<!-- Generator: Adobe Illustrator 25.0.1, SVG Export Plug-In . SVG Version: 6.00 Build 0)  -->
<svg version="1.1" id="Layer_1" xmlns="http://www.w3.org/2000/svg" xmlns:xlink="http://www.w3.org/1999/xlink" x="0px" y="0px"
	 viewBox="0 0 21 16" style="enable-background:new 0 0 21 16;" xml:space="preserve">
<path d="M17.34,4.82c-1.07-0.41-1.76,0.09-1.76,0.09s-0.37-0.76-2.08-0.86c-0.31-0.02-0.58-0.02-0.83,0.01
	c-0.02-0.26-0.03-0.57-0.04-0.91c-0.02-0.97,1.43-1.52,1.43-1.52L12.78,1c0,0-1.84,0.34-2.66,1.5C9.78,2.98,9.61,3.49,9.53,3.92
	C9.31,3.87,9.08,3.84,8.81,3.83C7.33,3.82,6.56,4.82,6.56,4.82C5.11,3.7,1.61,5.5,1.27,9.94c-0.34,4.44,2.51,5.38,3.67,5.55
	c1.16,0.17,1.81-0.33,1.81-0.33S7.17,16.04,8.87,16c1.84-0.04,2.12-1,2.12-1s0.45,0.83,2.09,0.85c1.98,0.02,2.3-0.84,2.3-0.84
	c2.07,1.06,4.32-0.87,4.59-4.42C20.25,7.04,18.4,5.23,17.34,4.82z M13.9,7.04l1.91,2.39h-3.78L13.9,7.04z M7.82,7.26l1.82,2.18h-3.6
	L7.82,7.26z M13.87,12.69l-0.71-0.37l-0.6,0.25l0.23,0.6c0,0-2.85,0.45-5.05-0.39c-1.5-0.58-2-1.84-2-1.84h2.09l0.21,0.82h0.9
	l0.26-0.82h0.78l0.31,0.72h0.84l0.32-0.72h4.45C15.9,10.94,15.41,11.7,13.87,12.69z"/>
</svg>
